<svg xmlns="http://www.w3.org/2000/svg" xmlns:xlink="http://www.w3.org/1999/xlink" width="180" zoomAndPan="magnify" viewBox="0 0 135 135.000003" height="180" preserveAspectRatio="xMidYMid meet" version="1.0"><defs><g/><clipPath id="1a1c7f4756"><path d="M 0.496094 0 L 134.503906 0 L 134.503906 134.007812 L 0.496094 134.007812 Z M 0.496094 0 " clip-rule="nonzero"/></clipPath><clipPath id="c5f12a1399"><path d="M 3 0 L 129 0 L 129 134.007812 L 3 134.007812 Z M 3 0 " clip-rule="nonzero"/></clipPath><clipPath id="74f94ebe12"><path d="M 9 0 L 125.90625 0 L 125.90625 133 L 9 133 Z M 9 0 " clip-rule="nonzero"/></clipPath><clipPath id="ecea544c41"><rect x="0" width="126" y="0" height="135"/></clipPath><clipPath id="8b41ce2b5d"><path d="M 3.671875 1.390625 L 134.503906 1.390625 L 134.503906 133.972656 L 3.671875 133.972656 Z M 3.671875 1.390625 " clip-rule="nonzero"/></clipPath><clipPath id="7c4c2462d1"><path d="M 14 69 L 50 69 L 50 124 L 14 124 Z M 14 69 " clip-rule="nonzero"/></clipPath><clipPath id="bd77b5a5ce"><path d="M 7.128906 75.867188 L 31.421875 64.386719 L 56.53125 117.527344 L 32.238281 129.007812 Z M 7.128906 75.867188 " clip-rule="nonzero"/></clipPath><clipPath id="e61343d809"><path d="M 19.273438 70.125 C 12.566406 73.296875 12.742188 87.746094 19.667969 102.402344 C 26.59375 117.058594 37.644531 126.367188 44.351562 123.199219 C 51.0625 120.03125 50.886719 105.578125 43.960938 90.921875 C 37.035156 76.265625 25.984375 66.957031 19.273438 70.125 Z M 19.273438 70.125 " clip-rule="nonzero"/></clipPath><clipPath id="948a23b154"><path d="M 0 0 L 36 0 L 36 55 L 0 55 Z M 0 0 " clip-rule="nonzero"/></clipPath><clipPath id="6305f7fe46"><path d="M -6.871094 6.867188 L 17.421875 -4.613281 L 42.53125 48.527344 L 18.238281 60.007812 Z M -6.871094 6.867188 " clip-rule="nonzero"/></clipPath><clipPath id="089aaf5b0e"><path d="M 5.273438 1.125 C -1.433594 4.296875 -1.257812 18.746094 5.667969 33.402344 C 12.59375 48.058594 23.644531 57.367188 30.351562 54.199219 C 37.0625 51.03125 36.886719 36.578125 29.960938 21.921875 C 23.035156 7.265625 11.984375 -2.042969 5.273438 1.125 Z M 5.273438 1.125 " clip-rule="nonzero"/></clipPath><clipPath id="229fc03d85"><rect x="0" width="36" y="0" height="55"/></clipPath><clipPath id="8bc32697d9"><path d="M 27 51 L 46 51 L 46 106 L 27 106 Z M 27 51 " clip-rule="nonzero"/></clipPath><clipPath id="683cb798fc"><path d="M 23.261719 53.007812 L 36.613281 49.785156 L 49.695312 103.964844 L 36.347656 107.1875 Z M 23.261719 53.007812 " clip-rule="nonzero"/></clipPath><clipPath id="63852aacba"><path d="M 29.9375 51.394531 C 26.25 52.285156 26.1875 65.125 29.800781 80.074219 C 33.410156 95.023438 39.324219 106.417969 43.011719 105.527344 C 46.695312 104.640625 46.757812 91.800781 43.148438 76.851562 C 39.539062 61.902344 33.625 50.503906 29.9375 51.394531 Z M 29.9375 51.394531 " clip-rule="nonzero"/></clipPath><clipPath id="91275eb01e"><path d="M 0 0 L 19 0 L 19 55 L 0 55 Z M 0 0 " clip-rule="nonzero"/></clipPath><clipPath id="21b5d96154"><path d="M -3.738281 2.007812 L 9.613281 -1.214844 L 22.695312 52.964844 L 9.347656 56.1875 Z M -3.738281 2.007812 " clip-rule="nonzero"/></clipPath><clipPath id="a9ef3d6d7f"><path d="M 2.9375 0.394531 C -0.75 1.285156 -0.8125 14.125 2.800781 29.074219 C 6.410156 44.023438 12.324219 55.417969 16.011719 54.527344 C 19.695312 53.640625 19.757812 40.800781 16.148438 25.851562 C 12.539062 10.902344 6.625 -0.496094 2.9375 0.394531 Z M 2.9375 0.394531 " clip-rule="nonzero"/></clipPath><clipPath id="a6c551d696"><rect x="0" width="19" y="0" height="55"/></clipPath><clipPath id="73b91e1a6f"><rect x="0" width="135" y="0" height="135"/></clipPath></defs><g clip-path="url(#1a1c7f4756)"><g transform="matrix(1, 0, 0, 1, 0.000000000000000056, -0.000000000000003367)"><g clip-path="url(#73b91e1a6f)"><g clip-path="url(#c5f12a1399)"><g transform="matrix(1, 0, 0, 1, 3, -0.000000000000003367)"><g clip-path="url(#ecea544c41)"><g clip-path="url(#74f94ebe12)"><g fill="#222222" fill-opacity="1"><g transform="translate(0.67372, 130.377323)"><g><path d="M 66.890625 2.34375 C 58.285156 2.34375 50.425781 0.8125 43.3125 -2.25 C 36.207031 -5.3125 30.113281 -9.710938 25.03125 -15.453125 C 19.945312 -21.191406 16.003906 -28.164062 13.203125 -36.375 C 10.398438 -44.59375 9 -53.914062 9 -64.34375 C 9 -74.769531 10.398438 -84.054688 13.203125 -92.203125 C 16.003906 -100.359375 19.945312 -107.207031 25.03125 -112.75 C 30.113281 -118.289062 36.207031 -122.523438 43.3125 -125.453125 C 50.425781 -128.390625 58.285156 -129.859375 66.890625 -129.859375 C 75.492188 -129.859375 83.347656 -128.390625 90.453125 -125.453125 C 97.554688 -122.523438 103.648438 -118.257812 108.734375 -112.65625 C 113.828125 -107.050781 117.773438 -100.171875 120.578125 -92.015625 C 123.378906 -83.867188 124.78125 -74.644531 124.78125 -64.34375 C 124.78125 -53.914062 123.378906 -44.59375 120.578125 -36.375 C 117.773438 -28.164062 113.828125 -21.191406 108.734375 -15.453125 C 103.648438 -9.710938 97.554688 -5.3125 90.453125 -2.25 C 83.347656 0.8125 75.492188 2.34375 66.890625 2.34375 Z M 66.890625 -22.484375 C 75.617188 -22.484375 82.523438 -26.234375 87.609375 -33.734375 C 92.703125 -41.234375 95.25 -51.4375 95.25 -64.34375 C 95.25 -77.125 92.703125 -87.097656 87.609375 -94.265625 C 82.523438 -101.441406 75.617188 -105.03125 66.890625 -105.03125 C 58.148438 -105.03125 51.238281 -101.441406 46.15625 -94.265625 C 41.070312 -87.097656 38.53125 -77.125 38.53125 -64.34375 C 38.53125 -51.4375 41.070312 -41.234375 46.15625 -33.734375 C 51.238281 -26.234375 58.148438 -22.484375 66.890625 -22.484375 Z M 66.890625 -22.484375 "/></g></g></g></g></g></g></g><g clip-path="url(#8b41ce2b5d)"><path fill="#00c853" d="M 78.628906 41.488281 C 55.472656 13.761719 32.242188 39.144531 32.242188 39.144531 L 24.375 29.738281 C 34.511719 21.140625 44.652344 15.136719 57.871094 16.515625 C 71.09375 17.894531 80.050781 23.644531 87.335938 33.011719 C 94.621094 42.378906 104.40625 47.375 115.855469 45.710938 C 127.304688 44.042969 134.59375 33.035156 134.59375 33.035156 L 143.421875 41.414062 C 137.203125 49.15625 129.203125 56.519531 114.601562 58.296875 C 100.003906 60.074219 87.027344 49.988281 87.027344 49.988281 L -4.707031 133.640625 L -13.023438 124.523438 Z M 94.792969 16.492188 C 93.832031 26.226562 102.234375 35.144531 112.09375 34.855469 C 120.726562 34.601562 128.40625 27.347656 128.386719 18.171875 C 128.371094 8.984375 120.652344 1.664062 111.757812 1.539062 C 103.113281 1.421875 95.617188 8.140625 94.792969 16.492188 Z M 64.710938 83.054688 C 65.417969 83.613281 76.109375 92.375 74.621094 106.179688 C 73.378906 117.726562 64.578125 123.902344 63.28125 124.777344 C 66.144531 127.695312 69.007812 130.613281 71.871094 133.53125 C 71.871094 133.53125 86.492188 122.90625 87.222656 104.886719 C 87.949219 86.871094 73.945312 74.980469 73.945312 74.980469 Z M 64.710938 83.054688 " fill-opacity="1" fill-rule="nonzero"/><path fill="#00c853" d="M 78.628906 41.488281 C 55.472656 13.761719 32.242188 39.144531 32.242188 39.144531 L 24.375 29.738281 C 34.511719 21.140625 44.652344 15.136719 57.871094 16.515625 C 71.09375 17.894531 80.050781 23.644531 87.335938 33.011719 C 94.621094 42.378906 104.40625 47.375 115.855469 45.710938 C 127.304688 44.042969 134.59375 33.035156 134.59375 33.035156 L 143.421875 41.414062 C 137.203125 49.15625 129.203125 56.519531 114.601562 58.296875 C 100.003906 60.074219 87.027344 49.988281 87.027344 49.988281 L -4.707031 133.640625 L -13.023438 124.523438 Z M 94.792969 16.492188 C 93.832031 26.226562 102.234375 35.144531 112.09375 34.855469 C 120.726562 34.601562 128.40625 27.347656 128.386719 18.171875 C 128.371094 8.984375 120.652344 1.664062 111.757812 1.539062 C 103.113281 1.421875 95.617188 8.140625 94.792969 16.492188 Z M 64.710938 83.054688 C 65.417969 83.613281 76.109375 92.375 74.621094 106.179688 C 73.378906 117.726562 64.578125 123.902344 63.28125 124.777344 C 66.144531 127.695312 69.007812 130.613281 71.871094 133.53125 C 71.871094 133.53125 86.492188 122.90625 87.222656 104.886719 C 87.949219 86.871094 73.945312 74.980469 73.945312 74.980469 Z M 64.710938 83.054688 " fill-opacity="1" fill-rule="nonzero"/></g><g clip-path="url(#7c4c2462d1)"><g clip-path="url(#bd77b5a5ce)"><g clip-path="url(#e61343d809)"><g transform="matrix(1, 0, 0, 1, 14, 69)"><g clip-path="url(#229fc03d85)"><g clip-path="url(#948a23b154)"><g clip-path="url(#6305f7fe46)"><g clip-path="url(#089aaf5b0e)"><path fill="#222222" d="M -6.871094 6.867188 L 17.421875 -4.613281 L 42.488281 48.433594 L 18.195312 59.910156 Z M -6.871094 6.867188 " fill-opacity="1" fill-rule="nonzero"/></g></g></g></g></g></g></g></g><g clip-path="url(#8bc32697d9)"><g clip-path="url(#683cb798fc)"><g clip-path="url(#63852aacba)"><g transform="matrix(1, 0, 0, 1, 27, 51)"><g clip-path="url(#a6c551d696)"><g clip-path="url(#91275eb01e)"><g clip-path="url(#21b5d96154)"><g clip-path="url(#a9ef3d6d7f)"><path fill="#222222" d="M -3.738281 2.007812 L 9.613281 -1.214844 L 22.683594 52.910156 L 9.335938 56.136719 Z M -3.738281 2.007812 " fill-opacity="1" fill-rule="nonzero"/></g></g></g></g></g></g></g></g></g></g></g></svg>