<svg xmlns="http://www.w3.org/2000/svg" xmlns:xlink="http://www.w3.org/1999/xlink" width="250" zoomAndPan="magnify" viewBox="0 0 187.5 44.999999" height="60" preserveAspectRatio="xMidYMid meet" version="1.0"><defs><g/><clipPath id="650a57ed44"><path d="M 0 0.0585938 L 186 0.0585938 L 186 44.9375 L 0 44.9375 Z M 0 0.0585938 " clip-rule="nonzero"/></clipPath><clipPath id="89e724805c"><path d="M 0 0.0585938 L 185.027344 0.0585938 L 185.027344 44.9375 L 0 44.9375 Z M 0 0.0585938 " clip-rule="nonzero"/></clipPath><clipPath id="36fe5ef872"><path d="M 39 0.0585938 L 78 0.0585938 L 78 44.9375 L 39 44.9375 Z M 39 0.0585938 " clip-rule="nonzero"/></clipPath><clipPath id="abb8b44f70"><rect x="0" width="186" y="0" height="45"/></clipPath><clipPath id="c037ca60b1"><path d="M 36.824219 1.390625 L 79.730469 1.390625 L 79.730469 44.777344 L 36.824219 44.777344 Z M 36.824219 1.390625 " clip-rule="nonzero"/></clipPath><clipPath id="8cca1efccb"><path d="M 40 23 L 52 23 L 52 42 L 40 42 Z M 40 23 " clip-rule="nonzero"/></clipPath><clipPath id="b6ada80bf5"><path d="M 37.664062 25.558594 L 45.628906 21.792969 L 53.863281 39.21875 L 45.898438 42.984375 Z M 37.664062 25.558594 " clip-rule="nonzero"/></clipPath><clipPath id="15afb5b92c"><path d="M 41.648438 23.675781 C 39.449219 24.714844 39.503906 29.453125 41.777344 34.257812 C 44.046875 39.066406 47.671875 42.117188 49.871094 41.078125 C 52.070312 40.039062 52.011719 35.300781 49.742188 30.496094 C 47.472656 25.6875 43.847656 22.636719 41.648438 23.675781 Z M 41.648438 23.675781 " clip-rule="nonzero"/></clipPath><clipPath id="20fb66f822"><path d="M 0 0 L 12 0 L 12 19 L 0 19 Z M 0 0 " clip-rule="nonzero"/></clipPath><clipPath id="e2bf9e4aae"><path d="M -2.335938 2.558594 L 5.628906 -1.207031 L 13.863281 16.21875 L 5.898438 19.984375 Z M -2.335938 2.558594 " clip-rule="nonzero"/></clipPath><clipPath id="acacedc9e0"><path d="M 1.648438 0.675781 C -0.550781 1.714844 -0.496094 6.453125 1.777344 11.257812 C 4.046875 16.066406 7.671875 19.117188 9.871094 18.078125 C 12.070312 17.039062 12.011719 12.300781 9.742188 7.496094 C 7.472656 2.6875 3.847656 -0.363281 1.648438 0.675781 Z M 1.648438 0.675781 " clip-rule="nonzero"/></clipPath><clipPath id="929983138f"><rect x="0" width="12" y="0" height="19"/></clipPath><clipPath id="89c53df29c"><path d="M 44 20 L 51 20 L 51 38 L 44 38 Z M 44 20 " clip-rule="nonzero"/></clipPath><clipPath id="c681d5a594"><path d="M 43.527344 20.6875 L 47.925781 19.726562 L 51.703125 37.035156 L 47.304688 37.996094 Z M 43.527344 20.6875 " clip-rule="nonzero"/></clipPath><clipPath id="06b357b654"><path d="M 45.726562 20.207031 C 44.511719 20.472656 44.371094 24.5625 45.414062 29.339844 C 46.457031 34.117188 48.289062 37.777344 49.503906 37.511719 C 50.71875 37.246094 50.859375 33.15625 49.816406 28.378906 C 48.769531 23.601562 46.941406 19.941406 45.726562 20.207031 Z M 45.726562 20.207031 " clip-rule="nonzero"/></clipPath><clipPath id="fcd0b16981"><path d="M 0.28125 0 L 6.984375 0 L 6.984375 17.878906 L 0.28125 17.878906 Z M 0.28125 0 " clip-rule="nonzero"/></clipPath><clipPath id="e956b3d396"><path d="M -0.472656 0.6875 L 3.925781 -0.273438 L 7.703125 17.035156 L 3.304688 17.996094 Z M -0.472656 0.6875 " clip-rule="nonzero"/></clipPath><clipPath id="223b7749cc"><path d="M 1.726562 0.207031 C 0.511719 0.472656 0.371094 4.5625 1.414062 9.339844 C 2.457031 14.117188 4.289062 17.777344 5.503906 17.511719 C 6.71875 17.246094 6.859375 13.15625 5.816406 8.378906 C 4.769531 3.601562 2.941406 -0.0585938 1.726562 0.207031 Z M 1.726562 0.207031 " clip-rule="nonzero"/></clipPath><clipPath id="6be54c64af"><rect x="0" width="7" y="0" height="18"/></clipPath><clipPath id="d564f4e90d"><rect x="0" width="186" y="0" height="45"/></clipPath></defs><g clip-path="url(#650a57ed44)"><g transform="matrix(1, 0, 0, 1, 0, 0.000000000000004656)"><g clip-path="url(#d564f4e90d)"><g clip-path="url(#89e724805c)"><g transform="matrix(1, 0, 0, 1, 0, 0.000000000000004656)"><g clip-path="url(#abb8b44f70)"><g fill="#00c853" fill-opacity="1"><g transform="translate(-1.49601, 43.334334)"><g><path d="M 4.9375 0 L 4.9375 -41.8125 L 14.359375 -41.8125 L 14.359375 -25.71875 L 28.796875 -25.71875 L 28.796875 -41.8125 L 38.28125 -41.8125 L 38.28125 0 L 28.796875 0 L 28.796875 -17.4375 L 14.359375 -17.4375 L 14.359375 0 Z M 4.9375 0 "/></g></g></g><g clip-path="url(#36fe5ef872)"><g fill="#00c853" fill-opacity="1"><g transform="translate(36.340724, 43.334334)"><g><path d="M 21.9375 0.765625 C 19.113281 0.765625 16.535156 0.265625 14.203125 -0.734375 C 11.867188 -1.742188 9.867188 -3.1875 8.203125 -5.0625 C 6.535156 -6.945312 5.242188 -9.234375 4.328125 -11.921875 C 3.410156 -14.617188 2.953125 -17.675781 2.953125 -21.09375 C 2.953125 -24.519531 3.410156 -27.566406 4.328125 -30.234375 C 5.242188 -32.910156 6.535156 -35.15625 8.203125 -36.96875 C 9.867188 -38.78125 11.867188 -40.164062 14.203125 -41.125 C 16.535156 -42.09375 19.113281 -42.578125 21.9375 -42.578125 C 24.75 -42.578125 27.320312 -42.09375 29.65625 -41.125 C 31.988281 -40.164062 33.988281 -38.765625 35.65625 -36.921875 C 37.320312 -35.085938 38.613281 -32.832031 39.53125 -30.15625 C 40.445312 -27.488281 40.90625 -24.46875 40.90625 -21.09375 C 40.90625 -17.675781 40.445312 -14.617188 39.53125 -11.921875 C 38.613281 -9.234375 37.320312 -6.945312 35.65625 -5.0625 C 33.988281 -3.1875 31.988281 -1.742188 29.65625 -0.734375 C 27.320312 0.265625 24.75 0.765625 21.9375 0.765625 Z M 21.9375 -7.375 C 24.800781 -7.375 27.066406 -8.601562 28.734375 -11.0625 C 30.398438 -13.519531 31.234375 -16.863281 31.234375 -21.09375 C 31.234375 -25.28125 30.398438 -28.550781 28.734375 -30.90625 C 27.066406 -33.257812 24.800781 -34.4375 21.9375 -34.4375 C 19.070312 -34.4375 16.800781 -33.257812 15.125 -30.90625 C 13.457031 -28.550781 12.625 -25.28125 12.625 -21.09375 C 12.625 -16.863281 13.457031 -13.519531 15.125 -11.0625 C 16.800781 -8.601562 19.070312 -7.375 21.9375 -7.375 Z M 21.9375 -7.375 "/></g></g></g></g><g fill="#00c853" fill-opacity="1"><g transform="translate(74.818758, 43.334334)"><g><path d="M 4.9375 0 L 4.9375 -41.8125 L 19.234375 -41.8125 C 21.421875 -41.8125 23.441406 -41.648438 25.296875 -41.328125 C 27.160156 -41.003906 28.785156 -40.4375 30.171875 -39.625 C 31.554688 -38.8125 32.644531 -37.742188 33.4375 -36.421875 C 34.226562 -35.097656 34.625 -33.429688 34.625 -31.421875 C 34.625 -30.484375 34.492188 -29.539062 34.234375 -28.59375 C 33.984375 -27.65625 33.625 -26.78125 33.15625 -25.96875 C 32.6875 -25.15625 32.117188 -24.425781 31.453125 -23.78125 C 30.785156 -23.144531 30.023438 -22.675781 29.171875 -22.375 L 29.171875 -22.125 C 30.242188 -21.863281 31.226562 -21.46875 32.125 -20.9375 C 33.019531 -20.40625 33.8125 -19.734375 34.5 -18.921875 C 35.1875 -18.109375 35.71875 -17.15625 36.09375 -16.0625 C 36.476562 -14.96875 36.671875 -13.71875 36.671875 -12.3125 C 36.671875 -10.175781 36.253906 -8.335938 35.421875 -6.796875 C 34.585938 -5.253906 33.429688 -3.976562 31.953125 -2.96875 C 30.484375 -1.96875 28.765625 -1.222656 26.796875 -0.734375 C 24.835938 -0.242188 22.722656 0 20.453125 0 Z M 14.359375 -25.078125 L 18.78125 -25.078125 C 21.09375 -25.078125 22.769531 -25.523438 23.8125 -26.421875 C 24.863281 -27.316406 25.390625 -28.515625 25.390625 -30.015625 C 25.390625 -31.640625 24.851562 -32.789062 23.78125 -33.46875 C 22.71875 -34.15625 21.078125 -34.5 18.859375 -34.5 L 14.359375 -34.5 Z M 14.359375 -7.3125 L 19.6875 -7.3125 C 24.863281 -7.3125 27.453125 -9.191406 27.453125 -12.953125 C 27.453125 -14.785156 26.804688 -16.097656 25.515625 -16.890625 C 24.234375 -17.679688 22.289062 -18.078125 19.6875 -18.078125 L 14.359375 -18.078125 Z M 14.359375 -7.3125 "/></g></g></g><g fill="#00c853" fill-opacity="1"><g transform="translate(108.230491, 43.334334)"><g><path d="M 4.9375 0 L 4.9375 -41.8125 L 14.359375 -41.8125 L 14.359375 0 Z M 4.9375 0 "/></g></g></g><g fill="#00c853" fill-opacity="1"><g transform="translate(122.146579, 43.334334)"><g><path d="M 4.9375 0 L 4.9375 -41.8125 L 31.296875 -41.8125 L 31.296875 -33.859375 L 14.359375 -33.859375 L 14.359375 -24.171875 L 28.859375 -24.171875 L 28.859375 -16.21875 L 14.359375 -16.21875 L 14.359375 0 Z M 4.9375 0 "/></g></g></g><g fill="#00c853" fill-opacity="1"><g transform="translate(150.363746, 43.334334)"><g><path d="M 12.125 0 L 12.125 -14.875 L -0.515625 -41.8125 L 9.625 -41.8125 L 13.34375 -32.1875 C 13.9375 -30.601562 14.5 -29.070312 15.03125 -27.59375 C 15.570312 -26.125 16.140625 -24.578125 16.734375 -22.953125 L 17 -22.953125 C 17.59375 -24.578125 18.175781 -26.125 18.75 -27.59375 C 19.332031 -29.070312 19.921875 -30.601562 20.515625 -32.1875 L 24.296875 -41.8125 L 34.171875 -41.8125 L 21.546875 -14.875 L 21.546875 0 Z M 12.125 0 "/></g></g></g></g></g></g><g clip-path="url(#c037ca60b1)"><path fill="#222222" d="M 61.402344 14.539062 C 53.808594 5.449219 46.191406 13.769531 46.191406 13.769531 L 43.613281 10.6875 C 46.9375 7.867188 50.261719 5.898438 54.597656 6.351562 C 58.933594 6.804688 61.871094 8.6875 64.257812 11.757812 C 66.648438 14.832031 69.855469 16.46875 73.609375 15.921875 C 77.363281 15.378906 79.753906 11.769531 79.753906 11.769531 L 82.652344 14.515625 C 80.609375 17.054688 77.988281 19.46875 73.199219 20.050781 C 68.414062 20.632812 64.15625 17.324219 64.15625 17.324219 L 34.078125 44.757812 L 31.347656 41.769531 Z M 66.703125 6.34375 C 66.386719 9.535156 69.144531 12.460938 72.378906 12.363281 C 75.207031 12.28125 77.726562 9.902344 77.71875 6.894531 C 77.714844 3.882812 75.183594 1.480469 72.265625 1.441406 C 69.433594 1.402344 66.976562 3.605469 66.703125 6.34375 Z M 56.839844 28.167969 C 57.070312 28.351562 60.578125 31.226562 60.089844 35.753906 C 59.683594 39.539062 56.796875 41.5625 56.371094 41.851562 C 57.308594 42.808594 58.25 43.765625 59.1875 44.722656 C 59.1875 44.722656 63.980469 41.238281 64.222656 35.328125 C 64.460938 29.421875 59.867188 25.523438 59.867188 25.523438 Z M 56.839844 28.167969 " fill-opacity="1" fill-rule="nonzero"/><path fill="#222222" d="M 61.402344 14.539062 C 53.808594 5.449219 46.191406 13.769531 46.191406 13.769531 L 43.613281 10.6875 C 46.9375 7.867188 50.261719 5.898438 54.597656 6.351562 C 58.933594 6.804688 61.871094 8.6875 64.257812 11.757812 C 66.648438 14.832031 69.855469 16.46875 73.609375 15.921875 C 77.363281 15.378906 79.753906 11.769531 79.753906 11.769531 L 82.652344 14.515625 C 80.609375 17.054688 77.988281 19.46875 73.199219 20.050781 C 68.414062 20.632812 64.15625 17.324219 64.15625 17.324219 L 34.078125 44.757812 L 31.347656 41.769531 Z M 66.703125 6.34375 C 66.386719 9.535156 69.144531 12.460938 72.378906 12.363281 C 75.207031 12.28125 77.726562 9.902344 77.71875 6.894531 C 77.714844 3.882812 75.183594 1.480469 72.265625 1.441406 C 69.433594 1.402344 66.976562 3.605469 66.703125 6.34375 Z M 56.839844 28.167969 C 57.070312 28.351562 60.578125 31.226562 60.089844 35.753906 C 59.683594 39.539062 56.796875 41.5625 56.371094 41.851562 C 57.308594 42.808594 58.25 43.765625 59.1875 44.722656 C 59.1875 44.722656 63.980469 41.238281 64.222656 35.328125 C 64.460938 29.421875 59.867188 25.523438 59.867188 25.523438 Z M 56.839844 28.167969 " fill-opacity="1" fill-rule="nonzero"/></g><g clip-path="url(#8cca1efccb)"><g clip-path="url(#b6ada80bf5)"><g clip-path="url(#15afb5b92c)"><g transform="matrix(1, 0, 0, 1, 40, 23)"><g clip-path="url(#929983138f)"><g clip-path="url(#20fb66f822)"><g clip-path="url(#e2bf9e4aae)"><g clip-path="url(#acacedc9e0)"><path fill="#00c853" d="M -2.335938 2.558594 L 5.628906 -1.207031 L 13.851562 16.1875 L 5.882812 19.953125 Z M -2.335938 2.558594 " fill-opacity="1" fill-rule="nonzero"/></g></g></g></g></g></g></g></g><g clip-path="url(#89c53df29c)"><g clip-path="url(#c681d5a594)"><g clip-path="url(#06b357b654)"><g transform="matrix(1, 0, 0, 1, 44, 20)"><g clip-path="url(#6be54c64af)"><g clip-path="url(#fcd0b16981)"><g clip-path="url(#e956b3d396)"><g clip-path="url(#223b7749cc)"><path fill="#00c853" d="M -0.472656 0.6875 L 3.925781 -0.273438 L 7.703125 17.035156 L 3.304688 17.996094 Z M -0.472656 0.6875 " fill-opacity="1" fill-rule="nonzero"/></g></g></g></g></g></g></g></g></g></g></g></svg>